<?xml version="1.0" encoding="utf-8"?>
<!-- Generator: Adobe Illustrator 16.0.0, SVG Export Plug-In . SVG Version: 6.00 Build 0)  -->
<svg version="1.2" baseProfile="tiny" id="Layer_1" xmlns="http://www.w3.org/2000/svg" xmlns:xlink="http://www.w3.org/1999/xlink"
	 x="0px" y="0px" width="595.28px" height="841.89px" viewBox="0 0 595.28 841.89" xml:space="preserve">
<g>
	<path fill="#414EA1" d="M-116.106,184.849c-1.44,1.258-1.439,3.302,0.004,4.56c1.087,0.949,2.678,1.18,4.014,0.703l80.974,70.571
		l102.141-0.085l19.727,17.192l111.098-0.09l67.575,58.891l-10.516,9.193l-52.109-45.412l-60.901,0.048l-0.206,0.182l-59.159,51.731
		l-20.655,0.017l-33.503-29.199c1.047-1.264,0.927-3.03-0.375-4.165c-1.444-1.259-3.786-1.258-5.227,0.005
		c-1.442,1.261-1.442,3.302,0.005,4.562c1.301,1.135,3.324,1.235,4.768,0.321l33.506,29.199l22.308-0.018l0.206-0.181l59.16-51.733
		l59.247-0.046l39.374,34.311l-25.375,0.021l-18.046-15.729c1.044-1.264,0.924-3.031-0.377-4.165
		c-1.448-1.259-3.787-1.257-5.229,0.004c-1.441,1.26-1.441,3.302,0.005,4.562c1.303,1.137,3.327,1.236,4.771,0.321l18.048,15.728
		l27.029-0.022l11.904,10.38l-14.057,12.295l-44.19,0.036l-26.561-23.146l-30.545,0.025l-0.211,0.181l-55.83,48.819
		c-1.445-0.912-3.469-0.807-4.767,0.33c-1.445,1.259-1.442,3.304,0.002,4.561c1.444,1.26,3.783,1.257,5.227-0.004
		c1.3-1.134,1.415-2.903,0.369-4.165l56.036-49l28.893-0.025l25.731,22.426l-30.458,0.026l-0.208,0.181l-34.156,29.869
		c-1.447-0.909-3.471-0.808-4.772,0.327c-1.442,1.262-1.438,3.306,0.004,4.564c1.444,1.26,3.784,1.257,5.226-0.005
		c1.303-1.138,1.417-2.904,0.371-4.165l34.366-30.049l74.647-0.063l-9.878,8.636l16.296,14.203l-14.737,12.887l-35.84,0.03
		l-0.208,0.181l-38.962,34.072l-33.786,0.028c-0.091-0.702-0.429-1.385-1.046-1.922c-1.444-1.258-3.784-1.255-5.225,0.005
		c-1.444,1.262-1.441,3.305,0.004,4.563c1.443,1.258,3.783,1.256,5.225-0.005c0.617-0.538,0.954-1.219,1.043-1.921l34.612-0.03
		l0.208-0.181l38.964-34.07l34.185-0.029l-63.411,55.448l-67.268,0.055l-34.439-30.012l-0.024-27.571l-0.099-0.085l-54.23-47.266
		c1.046-1.262,0.924-3.028-0.376-4.165c-1.447-1.257-3.786-1.256-5.228,0.005c-1.443,1.262-1.442,3.306,0.004,4.563
		c1.301,1.136,3.324,1.235,4.77,0.321l53.724,46.82l0.021,26.127l-99.631-86.83c1.046-1.261,0.926-3.029-0.376-4.163
		c-1.443-1.26-3.781-1.256-5.229,0.001c-1.442,1.261-1.44,3.307,0.005,4.563c1.303,1.134,3.328,1.238,4.771,0.319l135.51,118.097
		l68.92-0.057l0.208-0.18l78.772-68.879l15.874,13.838L131.835,514.514l-80.309,0.066l-0.208,0.18L5.585,554.752
		c-1.447-0.912-3.47-0.809-4.772,0.33c-1.442,1.262-1.44,3.303,0.004,4.563c1.443,1.258,3.783,1.256,5.226-0.004
		c1.303-1.137,1.417-2.906,0.371-4.164l45.939-40.174l80.308-0.064l0.208-0.182l134.279-117.42l15.121,13.174L149.266,527.105
		l0.06,69.291l-49.572,43.348l-76.231,0.063c-0.176-0.457-0.462-0.887-0.878-1.252c-1.443-1.258-3.785-1.256-5.226,0.006
		c-1.445,1.262-1.442,3.303,0.004,4.563c1.443,1.26,3.784,1.256,5.225-0.008c0.812-0.709,1.15-1.664,1.048-2.588l76.887-0.063
		l0.211-0.182l49.97-43.691l-0.061-69.291l112.271-98.173l0.02,19.731l-38.32,33.504l0.023,25.783l0.097,0.086l40.99,35.725
		c-1.042,1.262-0.927,3.029,0.381,4.164c1.442,1.26,3.785,1.256,5.223-0.004c1.445-1.26,1.444-3.303-0.001-4.564
		c-1.304-1.135-3.327-1.232-4.773-0.318l-40.483-35.279l-0.021-25.398l38.321-33.508l-0.022-21.172l18.691-16.344l40.347,35.166
		l-11.458,10.014l-30.093,0.025l-29.097,25.447c-1.448-0.912-3.474-0.809-4.772,0.328c-1.443,1.262-1.443,3.305,0.005,4.564
		c1.439,1.256,3.782,1.254,5.224-0.006c1.3-1.137,1.415-2.904,0.373-4.166l29.099-25.445l28.436-0.025l-31.04,27.139l0.011,12.84
		l0.1,0.084l17.545,15.293c-1.047,1.262-0.925,3.027,0.379,4.164c1.444,1.258,3.786,1.258,5.225-0.006
		c1.446-1.26,1.442-3.301-0.003-4.561c-1.302-1.137-3.327-1.234-4.773-0.322l-17.038-14.848l-0.009-12.449l42.715-37.352
		l7.771,6.773l24.769-21.654l11.609,10.119l0.012,15.318l-12.546,10.975c-1.445-0.873-3.431-0.754-4.717,0.367
		c-1.441,1.26-1.442,3.305,0.003,4.563c1.448,1.258,3.786,1.256,5.229-0.004c1.314-1.152,1.411-2.951,0.32-4.215l13.143-11.492
		l-0.015-14.26l29.614,25.807l-69.574,60.836l0.038,43.736l0.1,0.082l28.224,24.6c-1.044,1.264-0.926,3.031,0.378,4.166
		c1.445,1.258,3.786,1.256,5.225-0.004c1.445-1.264,1.443-3.305-0.004-4.563c-1.298-1.137-3.326-1.236-4.771-0.322l-27.713-24.156
		l-0.04-43.346l53.66-46.922l0.017,20.063l-22.452,19.633c-1.446-0.914-3.471-0.809-4.768,0.33c-1.442,1.26-1.441,3.303,0.004,4.563
		c1.443,1.258,3.783,1.256,5.229-0.006c1.295-1.137,1.413-2.906,0.362-4.164l23.059-20.162l-0.022-21.51l13.881-12.131
		l35.371,30.828l0.088,98.615l-87.698,76.689c-1.447-0.914-3.476-0.811-4.773,0.328c-1.444,1.26-1.442,3.303,0.004,4.563
		c1.447,1.258,3.788,1.254,5.227-0.006c1.302-1.139,1.416-2.904,0.37-4.166l88.308-77.215l-0.086-97.561l14.033,12.23l0.063,73
		l0.095,0.086l41.271,35.963c-1.048,1.262-0.931,3.029,0.377,4.166c1.442,1.258,3.782,1.258,5.225-0.006
		c1.444-1.26,1.442-3.303-0.003-4.563c-1.304-1.135-3.327-1.234-4.771-0.32l-40.762-35.521l-0.059-72.998l-0.101-0.086
		l-94.836-82.65l10.515-9.192l99.71,86.892l0.05,63.609l0.096,0.084l88.081,76.756l0.088,106.443l-23.548,20.6l1.65-0.002
		L557.61,756.6l-0.088-106.832l-0.099-0.082l-55.27-48.17l32.693-0.023l36.431,31.75c-1.047,1.264-0.926,3.029,0.374,4.164
		c1.45,1.262,3.787,1.258,5.23-0.006c1.44-1.26,1.437-3.303-0.003-4.561c-1.302-1.135-3.329-1.234-4.771-0.318l-36.435-31.756
		l-34.153,0.027l-0.001,0.166l-32.167-28.033l-0.054-63.607l-0.099-0.084l-100.217-87.338l11.943-10.442L575.384,580.92
		l35.107-0.027l0.001-0.721l-34.285,0.029l-194.452-169.47l14.757-12.902l100.308,87.417l17.919-0.016l17.785,15.5l41.213-0.035
		l34.489,30.057c-1.05,1.262-0.928,3.027,0.375,4.162c0.526,0.461,1.177,0.748,1.854,0.869l-0.007-6.289
		c-0.492,0.094-0.97,0.264-1.396,0.533l-34.488-30.055l-41.212,0.033l-16.96-14.777l65.999-0.055l9.991-8.736l18.035,15.715
		l-0.001-1.443l-17.204-14.996l17.178-15.023l-0.001-1.443l-28.83,25.207l-83.914,0.068l-100.308-87.416l13.432-11.746
		l70.982,61.861c-1.044,1.262-0.929,3.031,0.377,4.168c1.446,1.258,3.784,1.256,5.229-0.004c1.441-1.262,1.439-3.305-0.008-4.563
		c-1.302-1.137-3.326-1.234-4.771-0.32l-70.983-61.863l12.967-11.34l84.911,74l0.019,20.129c-0.694,0.121-1.359,0.416-1.892,0.885
		c-1.444,1.262-1.442,3.305,0.004,4.563c1.44,1.256,3.784,1.256,5.225-0.004c1.442-1.26,1.441-3.303-0.004-4.564
		c-0.542-0.469-1.199-0.76-1.896-0.881l-0.019-20.32l-0.097-0.082l-85.417-74.448l5.229-4.578l-4.034-3.517l20.319-17.765
		l28.29-0.022l16.808,14.649h-0.079l0.02,23.006l0.103,0.084l28.941,25.224c-1.044,1.264-0.928,3.029,0.376,4.166
		c1.44,1.26,3.784,1.256,5.226-0.005c1.445-1.26,1.444-3.302-0.005-4.562c-1.297-1.136-3.326-1.235-4.771-0.321l-28.433-24.776
		l-0.018-21.631l49.414,43.064c-1.132,1.266-1.042,3.091,0.293,4.254c1.445,1.257,3.788,1.255,5.229-0.004
		c1.442-1.261,1.44-3.305-0.005-4.564c-1.268-1.106-3.235-1.235-4.671-0.393l-61.631-53.712l13.612-0.012l36.67,31.958l25.87-0.022
		l29.86,26.018c-1.046,1.26-0.932,3.029,0.371,4.166c1.448,1.26,3.785,1.257,5.228-0.005c1.445-1.263,1.443-3.303-0.005-4.562
		c-1.301-1.136-3.324-1.235-4.768-0.321l-29.855-26.018l-25.873,0.021l-36.67-31.958l-15.268,0.013l-5.137-4.476l-29.943,0.022
		l-20.339,17.765l-13.371-11.652l41.804-36.552l47.556-0.04l28.427,24.771c-1.132,1.267-1.044,3.093,0.29,4.256
		c1.445,1.259,3.782,1.257,5.23-0.005c1.44-1.26,1.438-3.303-0.008-4.562c-1.271-1.109-3.234-1.237-4.667-0.395l-27.615-24.068
		l38.417-0.032l21.817,19.014l46.647-0.04l-0.003-0.722l-45.822,0.039l-20.991-18.292l66.794-0.054v-0.722l-156.9,0.127
		l-41.804,36.552l-15.014-13.083l54.638-47.773l130.213-0.107l26.266-22.964l2.563-0.002l-0.003-0.722l-3.39,0.002L580.559,289.7
		l-130.211,0.108l-54.636,47.772l-11.128-9.695l73.732-64.477l111.098-0.092l40.764-35.646v-1.444l-41.59,36.369l-111.098,0.092
		l-73.734,64.477l-18.033-15.717l122.68-107.274l55.281-0.043l42.046-36.766l-1.654,0.002l-41.222,36.042l-55.28,0.044
		l-69.002,60.342l-0.04-47.675l55.646-48.66l-1.653,0.001l-55.425,48.465l0.041,49.121l-52.247,45.685l-20.958-18.268l44.906-39.267
		l-0.05-62.992l25.952-22.696l-1.654,0.001l-5.689,4.976l-0.004-4.971l-1.434,0.001l0.006,6.221l-18.61,16.274L387.41,253
		l-12.566,10.989l-0.021-26.78l-0.098-0.084l-15.399-13.421l-0.048-55.964l0.21-0.187l-1.641,0.001l0.045,54.901l-17.337-15.108
		c1.048-1.262,0.928-3.028-0.376-4.165c-1.445-1.259-3.785-1.257-5.228,0.004c-1.44,1.261-1.44,3.303,0.004,4.563
		c1.301,1.134,3.327,1.235,4.773,0.319l33.658,29.334l0.025,27.837l-30.306,26.498l-11.215-9.773l-7.204,6.301l-0.016-18.298
		l27.38-23.944c1.444,0.913,3.473,0.808,4.771-0.327c1.443-1.262,1.441-3.306-0.006-4.563c-1.441-1.258-3.783-1.257-5.228,0.005
		c-1.3,1.137-1.417,2.904-0.367,4.164l-27.986,24.472l0.016,19.745l-15.324,13.399l-9.439-8.224l-0.012-14.604l-14.715-12.827
		l-0.011-9.583l24.77-21.658c1.448,0.971,3.526,0.888,4.852-0.27c1.44-1.262,1.439-3.306-0.001-4.563
		c-1.451-1.259-3.787-1.257-5.232,0.004c-1.272,1.115-1.413,2.839-0.434,4.094l-25.388,22.198l0.009,9.97l14.718,12.826
		l0.008,13.161l-30.173-26.295l-0.012-14.212l33.911-29.651l-0.047-55.685l-1.435,0.001l0.046,55.49l-33.908,29.654l0.013,14.599
		l0.097,0.083l41.556,36.212l-10.886,9.521l-46.955-40.922l-0.025-28.888l27.282-23.858l-0.045-51.871l-1.434,0.001l0.045,51.676
		l-25.849,22.608l-0.062-74.263l-1.437,0.001l0.089,104.79l0.096,0.084l47.466,41.365l-12.372,10.817l-65.476-57.064l-0.087-99.966
		l-1.433,0l0.066,72.846l-83.512-72.776l-1.653,0.001l85.166,74.219l0.022,25.152l-62.082-54.107l-13.673,0.011L110.65,187.13
		c1.044-1.261,0.927-3.027-0.379-4.164c-1.444-1.259-3.785-1.257-5.226,0.004c-1.442,1.259-1.44,3.303,0.005,4.563
		c1.3,1.134,3.322,1.235,4.77,0.321l16.176,14.095l-37.47,0.031L49.314,167.81l-1.653,0.001L87.7,202.704l39.124-0.032l12.702,11.07
		l13.675-0.012l62.59,54.548l0.622-0.184l65.775,57.326l-11.937,10.444l-67.577-58.892l-111.098,0.091L-33.707,167.876l-1.656,0.002
		l105.559,91.997l-100.481,0.084l-80.79-70.409c0.065-0.051,0.137-0.091,0.201-0.148c1.442-1.257,1.44-3.303-0.004-4.561
		C-112.322,183.583-114.663,183.587-116.106,184.849z M331.896,283.412L428.955,368l-96.914,84.746l-97.065-84.588L331.896,283.412z
		"/>
</g>
<g>
	<path fill="#414EA1" d="M47.667,168.5c3.224,0,3.224-5,0-5S44.443,168.5,47.667,168.5L47.667,168.5z"/>
</g>
<g>
	<path fill="#414EA1" d="M131,169.167c3.224,0,3.224-5,0-5S127.776,169.167,131,169.167L131,169.167z"/>
</g>
<g>
	<path fill="#414EA1" d="M216.333,169.167c3.224,0,3.224-5,0-5S213.109,169.167,216.333,169.167L216.333,169.167z"/>
</g>
<g>
	<path fill="#414EA1" d="M249,169.167c3.224,0,3.224-5,0-5S245.776,169.167,249,169.167L249,169.167z"/>
</g>
<g>
	<path fill="#414EA1" d="M276.333,170.5c3.224,0,3.224-5,0-5S273.109,170.5,276.333,170.5L276.333,170.5z"/>
</g>
<g>
	<path fill="#414EA1" d="M301,168.5c3.225,0,3.225-5,0-5C297.776,163.5,297.776,168.5,301,168.5L301,168.5z"/>
</g>
<g>
	<path fill="#414EA1" d="M359.667,169.167c3.225,0,3.225-5,0-5S356.442,169.167,359.667,169.167L359.667,169.167z"/>
</g>
<g>
	<path fill="#414EA1" d="M414.334,169.167c3.225,0,3.225-5,0-5S411.109,169.167,414.334,169.167L414.334,169.167z"/>
</g>
<g>
	<path fill="#414EA1" d="M406.334,168.5c3.225,0,3.225-5,0-5S403.109,168.5,406.334,168.5L406.334,168.5z"/>
</g>
<g>
	<path fill="#414EA1" d="M474.334,170.5c3.225,0,3.225-5,0-5S471.109,170.5,474.334,170.5L474.334,170.5z"/>
</g>
<g>
	<path fill="#414EA1" d="M584.334,171.833c3.225,0,3.225-5,0-5S581.109,171.833,584.334,171.833L584.334,171.833z"/>
</g>
<image width="1366" height="689" xlink:href="lock-light.png"  transform="matrix(0.1382 0 0 0.1382 233.5215 309.7095)">
</image>
</svg>
