<?xml version="1.0" encoding="iso-8859-1"?>
<!-- Generator: Adobe Illustrator 16.0.0, SVG Export Plug-In . SVG Version: 6.00 Build 0)  -->
<!DOCTYPE svg PUBLIC "-//W3C//DTD SVG 1.1//EN" "http://www.w3.org/Graphics/SVG/1.1/DTD/svg11.dtd">
<svg version="1.1" id="Capa_1" xmlns="http://www.w3.org/2000/svg" xmlns:xlink="http://www.w3.org/1999/xlink" x="0px" y="0px"
	 width="799.924px" height="799.924px" viewBox="0 0 799.924 799.924" style="enable-background:new 0 0 799.924 799.924;"
	 xml:space="preserve">
<g>
	<polygon points="454.913,203.1 419.44,244.835 409.704,217.012 413.876,203.1 399.963,203.1 386.051,203.1 390.225,217.012 
		380.486,244.835 345.011,203.1 290.059,233.706 290.059,489.685 319.274,493.859 330.404,799.924 386.051,799.924 393.007,559.247 
		399.963,559.247 406.919,559.247 413.876,799.924 469.519,799.924 480.649,493.859 509.864,489.685 509.864,233.706 	"/>
	<path d="M399.963,194.738c40.819,0,73.979-32.715,74.727-73.362H325.233C325.982,162.023,359.142,194.738,399.963,194.738z"/>
	<polygon points="514.144,38.008 399.958,0 285.78,38.008 325.435,57.821 325.435,114.709 474.489,114.709 474.489,57.822 	"/>
</g>
<g>
</g>
<g>
</g>
<g>
</g>
<g>
</g>
<g>
</g>
<g>
</g>
<g>
</g>
<g>
</g>
<g>
</g>
<g>
</g>
<g>
</g>
<g>
</g>
<g>
</g>
<g>
</g>
<g>
</g>
</svg>
